<svg xmlns="http://www.w3.org/2000/svg" width="144" height="144" viewBox="0 0 144 144">
  <g fill="none" fill-rule="evenodd">
<path fill="#EFEFEF" fill-rule="nonzero" d="M72,64 C65.372,64 60,69.376 60,76 C60,82.624 65.372,88 72,88 C78.624,88 84,82.624 84,76 C84,69.376 78.624,64 72,64 Z M104,52 L94.4,52 C93.08,52 91.656,50.976 91.244,49.72 L88.76,42.276 C88.34,41.024 86.924,40 85.6,40 L58.4,40 C57.08,40 55.656,41.024 55.244,42.272 L52.756,49.72 C52.34,50.976 50.92,52 49.6,52 L40,52 C35.6,52 32,55.6 32,60 L32,96 C32,100.4 35.6,104 40,104 L104,104 C108.4,104 112,100.4 112,96 L112,60 C112,55.6 108.4,52 104,52 Z M72,96 C60.952,96 52,87.048 52,76 C52,64.952 60.952,56 72,56 C83.044,56 92,64.952 92,76 C92,87.048 83.044,96 72,96 Z M102,64.8 C100.452,64.8 99.2,63.544 99.2,61.996 C99.2,60.456 100.452,59.196 102,59.196 C103.548,59.196 104.8,60.452 104.8,61.996 C104.8,63.544 103.548,64.8 102,64.8 Z"/>
  </g>
</svg>
